<svg xmlns="http://www.w3.org/2000/svg" version="1.1" xmlns:xlink="http://www.w3.org/1999/xlink" xmlns:svgjs="http://svgjs.com/svgjs" width="78" height="88"><svg version="1.1" id="SvgjsSvg1000" xmlns="http://www.w3.org/2000/svg" xmlns:xlink="http://www.w3.org/1999/xlink" x="0px" y="0px" viewBox="0 0 78 88" style="enable-background:new 0 0 78 88;" xml:space="preserve">
<style type="text/css">
	.st0{fill:#1395BA;}
</style>
<path class="st0" d="M76.065,21.043L40.315,0.402c-0.814-0.47-1.816-0.47-2.629,0L1.936,21.043
	c-0.813,0.469-1.314,1.337-1.314,2.276v41.28c0,0.939,0.501,1.807,1.314,2.276l35.75,20.641c0.406,0.235,0.86,0.353,1.314,0.353
	s0.908-0.118,1.315-0.353l35.75-20.641c0.813-0.469,1.314-1.337,1.314-2.276v-41.28C77.379,22.38,76.878,21.512,76.065,21.043z
	 M51.442,51.845H25.636l13.294-23.46L51.442,51.845z M21.256,48.911L7.799,25.559h26.69L21.256,48.911z M51.122,57.103L38.93,79.582
	L25.976,57.103H51.122z M55.702,48.659l-12.32-23.1h24.849L55.702,48.659z M41.629,20.301V7.231l22.637,13.07H41.629z
	 M36.371,20.301H13.734l22.637-13.07V20.301z M5.879,32.757l11.894,20.639L5.879,60.392C5.879,60.392,5.879,32.757,5.879,32.757z
	 M20.398,57.952l11.67,20.251L8.804,64.771L20.398,57.952z M56.875,57.523l12.321,7.248L45.535,78.432L56.875,57.523z
	 M59.384,52.898l12.737-23.485V60.39L59.384,52.898z"></path>
</svg><style>@media (prefers-color-scheme: light) { :root { filter: none; } }
</style></svg>